<svg enable-background="new 0 0 320.4 79.8" viewBox="0 0 320.4 79.8" xmlns="http://www.w3.org/2000/svg"><path d="m52.5 37.3h-5.6" fill="none"/><path d="m18.2 45.4c.7-3.8 1.7-7.5 3.5-10.9 1.2-2.4 2.8-4.6 4.7-6.4 1.9-1.9 4.1-3.6 6.4-5 .7-.4 1.5-.8 2.3-1.2 3.4-1.6 7-2.8 10.6-3.8.1 0 .2-.1.3-.1v-15c0-1-.9-1.9-1.9-1.9h-19c-1 0-1.9.9-1.9 1.9v19.8h-19.8c-1 0-1.9.9-1.9 1.9v18.9c0 1 .9 1.9 1.9 1.9zm27.8 15.2c-4.2 1.2-8.7 2.2-12.2 4.4-.9.5-1.8.9-2.8 1-.2 0-.4 0-.6.1 0 .4.1.7.2 1.1h13.5c1 0 1.9-.9 1.9-1.9 0-.1 0-4.7 0-4.7z" fill="#006838"/><path d="m71 13.8c-1 6.4-.9 13.6-2.5 19.8-2.2 8.4-7 15.9-14.5 20.4-1.9 1.2-4 2.1-6.1 2.8-6.2 2.2-12.9 3.2-18.3 6.4-.4.3-.7.4-1 .4-3.8.6-1.3-12.1 7.8-18.8 1.9-1.4 3.9-2.7 5.8-4 .3-.2.1-.7-.3-.7 0 0 0 0-.1 0-1.7.8-3.5 1.7-5.1 2.6-6.2 3.4-11 8.1-12.8 15.2-1.6 6.1-1.6 13.3 1.1 19 .4.8-.6 1.6-1.3 1.1-.5-.4-.8-1.1-1-1.7-1.1-2.6-1.6-5.5-2.2-8.2-1.2-6.8-1.3-13.9 0-20.7.7-3.8 1.7-7.4 3.4-10.7 1-2.1 2.4-4.1 4.2-5.8 1.8-1.9 3.9-3.4 6-4.6.7-.4 1.5-.8 2.2-1.2 3.4-1.7 7.1-2.8 10.9-3.9 7.7-2.1 15.7-3.8 22-8.7.2-.1.3-.2.5-.2.8.1 1.4.7 1.3 1.5z" fill="#88c250"/><path d="m82.2 54.5c-.2-.2-.4-.5-.4-.9v-31.3c0-.4.1-.7.4-.9.2-.2.5-.4.9-.4h5.5c.8 0 1.4.4 1.7 1.1l8.3 14.9 8.4-14.9c.4-.7.9-1.1 1.7-1.1h5.5c.4 0 .7.1.9.4s.4.5.4.9v31.3c0 .4-.1.6-.4.9-.2.2-.5.3-.9.3h-6.2c-.3 0-.6-.1-.8-.4s-.4-.5-.4-.8v-17.5l-5.2 9.6c-.4.7-1 1.1-1.7 1.1h-2.6c-.6 0-1.2-.4-1.7-1.1l-5.2-9.6v17.6c0 .4-.1.6-.4.9-.2.2-.5.3-.9.3h-6.1c-.2-.1-.5-.2-.8-.4z" fill="#88c250"/><path d="m124 52.2c-2.3-2.1-3.4-5.2-3.5-9.2v-1.5c.1-3.8 1.3-6.8 3.6-9s5.3-3.2 9.1-3.2c2.8 0 5.1.6 7 1.7s3.3 2.6 4.3 4.6c.9 1.9 1.4 4.2 1.4 6.6v1.2c0 .4-.1.7-.4.9-.2.2-.5.4-.9.4h-15.3v.3c0 1.4.4 2.6 1 3.5s1.6 1.3 2.8 1.3c.8 0 1.4-.2 1.9-.5s.9-.7 1.3-1.2c.3-.3.5-.5.7-.6s.5-.1.8-.1h6.3c.3 0 .5.1.7.3s.3.4.3.7c0 .8-.5 1.8-1.4 2.9-1 1.1-2.3 2.1-4.2 2.9-1.8.8-4 1.2-6.4 1.2-3.8-.1-6.9-1.1-9.1-3.2zm13.1-12.5c0-1.6-.3-2.8-1-3.7s-1.6-1.3-2.8-1.3-2.2.4-2.8 1.3c-.7.9-1 2.1-1 3.6v.1z" fill="#88c250"/><path d="m152.3 52.4c-1.8-2-2.7-4.8-2.9-8.4v-1.7-1.7c.1-3.5 1.1-6.3 2.9-8.3s4.2-3 7.3-3c2.9 0 5.2.9 7 2.8v-10.3c0-.4.1-.6.4-.9.2-.2.5-.3.8-.3h6.2c.4 0 .7.1.9.3s.4.5.4.9v31.9c0 .4-.1.6-.4.9-.2.2-.5.3-.9.3h-5.7c-.3 0-.6-.1-.8-.4s-.4-.5-.4-.8v-1.5c-1.7 2.1-4.2 3.2-7.5 3.2-3-.1-5.5-1-7.3-3zm13.3-5.1c.7-.9 1-2 1.1-3.4.1-.9.1-1.5.1-1.8 0-.4 0-.9-.1-1.8-.1-1.3-.4-2.3-1.1-3.1s-1.7-1.2-3.1-1.2-2.5.4-3.1 1.3-1 2-1.1 3.5v1.5 1.5c.1 1.5.5 2.7 1.1 3.5.6.9 1.7 1.3 3.1 1.3s2.4-.4 3.1-1.3z" fill="#88c250"/><path d="m181.2 25.9c-.2-.2-.3-.5-.3-.9v-4.5c0-.4.1-.7.4-.9s.5-.4.8-.4h6c.4 0 .7.1.9.4s.4.5.4.9v4.5c0 .4-.1.7-.4.9-.2.2-.5.4-.9.4h-6c-.4 0-.6-.2-.9-.4zm.1 28.6c-.2-.2-.4-.5-.4-.8v-22.7c0-.4.1-.6.4-.9.2-.2.5-.3.8-.3h6c.4 0 .7.1.9.3s.4.5.4.9v22.7c0 .4-.1.6-.4.9-.2.2-.5.3-.9.3h-6c-.3-.1-.6-.2-.8-.4z" fill="#88c250"/><g fill="#006838"><path d="m198.6 51.9c-2.6-2.3-4-5.5-4.2-9.7 0-.9 0-2.4 0-4.4s0-3.5 0-4.4c.1-4.1 1.5-7.2 4.2-9.4s6.3-3.4 10.9-3.4c3.1 0 5.8.5 8.1 1.5s4.1 2.3 5.3 3.8c1.2 1.6 1.8 3.2 1.9 4.8 0 .3-.1.5-.3.7s-.5.3-.7.3h-7.5c-.3 0-.6-.1-.7-.2-.2-.1-.3-.3-.5-.5-.4-.9-1-1.7-1.9-2.3s-2.1-1-3.6-1c-3.7 0-5.7 1.9-5.8 5.8v4.2s0 3.3 0 4.2c.1 4.1 2.1 6.1 5.9 6.1 1.9 0 3.3-.5 4.4-1.4s1.6-2.3 1.6-4.2v-.9h-4.3c-.4 0-.7-.1-.9-.4s-.4-.5-.4-.9v-3.8c0-.4.1-.7.4-.9s.5-.4.9-.4h12.3c.4 0 .7.1.9.4s.4.5.4.9v5.6c0 2.7-.6 5.1-1.9 7.1s-3.1 3.5-5.4 4.5-5 1.6-8.1 1.6c-4.7.1-8.3-1-11-3.3z"/><path d="m230.2 54.5c-.2-.2-.4-.5-.4-.8v-22.7c0-.4.1-.7.3-.9s.5-.4.9-.4h5.9c.4 0 .7.1.9.4s.4.5.4.9v1.8c.9-1 2-1.8 3.2-2.3s2.6-.8 4-.8h2.2c.4 0 .6.1.9.3.2.2.3.5.3.9v5.3c0 .3-.1.6-.3.8s-.5.4-.9.4h-4.9c-1.3 0-2.3.4-3 1.1s-1 1.7-1 3v12.2c0 .4-.1.6-.4.9-.2.2-.5.3-.9.3h-6.4c-.3-.1-.6-.2-.8-.4z"/><path d="m252.4 25.9c-.2-.2-.3-.5-.3-.9v-4.5c0-.4.1-.7.4-.9s.5-.4.8-.4h6c.4 0 .7.1.9.4.2.2.4.5.4.9v4.5c0 .4-.1.7-.4.9-.2.2-.5.4-.9.4h-6c-.4 0-.7-.2-.9-.4zm0 28.6c-.2-.2-.4-.5-.4-.8v-22.7c0-.4.1-.6.4-.9.2-.2.5-.3.8-.3h6c.4 0 .7.1.9.3s.4.5.4.9v22.7c0 .4-.1.6-.4.9-.2.2-.5.3-.9.3h-6c-.3-.1-.5-.2-.8-.4z"/><path d="m268.1 52.4c-1.8-2-2.7-4.8-2.9-8.4v-1.7-1.7c.1-3.5 1.1-6.3 2.9-8.3s4.2-3 7.3-3c2.9 0 5.2.9 7 2.8v-10.3c0-.4.1-.6.4-.9.2-.2.5-.3.8-.3h6.2c.4 0 .7.1.9.3s.4.5.4.9v31.9c0 .4-.1.6-.4.9-.2.2-.5.3-.9.3h-5.7c-.3 0-.6-.1-.8-.4-.2-.2-.4-.5-.4-.8v-1.5c-1.7 2.1-4.2 3.2-7.5 3.2-3.1-.1-5.5-1-7.3-3zm13.3-5.1c.7-.9 1-2 1.1-3.4.1-.9.1-1.5.1-1.8 0-.4 0-.9-.1-1.8-.1-1.3-.4-2.3-1.1-3.1s-1.7-1.2-3.1-1.2-2.5.4-3.1 1.3-1 2-1.1 3.5v1.5 1.5c.1 1.5.5 2.7 1.1 3.5.6.9 1.7 1.3 3.1 1.3s2.4-.4 3.1-1.3z"/><path d="m300.6 54.2c-1.8-.7-3.1-1.6-3.9-2.7-.9-1-1.3-2-1.3-2.8 0-.3.1-.6.4-.8.2-.2.5-.3.8-.3h5.8c.2 0 .4.1.5.2.5.4.9.6.9.6.6.5 1.2.8 1.7 1s1.2.4 1.9.4c.9 0 1.6-.2 2.1-.5.6-.3.8-.8.8-1.4 0-.5-.2-.9-.5-1.3-.3-.3-.9-.6-1.7-.9-.9-.3-2.1-.6-3.9-.9-5.6-1.1-8.4-3.7-8.4-7.7 0-1.3.4-2.6 1.3-3.8s2.1-2.2 3.8-2.9 3.6-1.1 6-1.1c2.3 0 4.4.4 6.1 1.1s3 1.6 3.9 2.6 1.4 1.9 1.4 2.8c0 .3-.1.5-.3.8-.2.2-.5.3-.7.3h-5.3c-.3 0-.5-.1-.7-.2-.4-.2-.8-.4-1.2-.7-.6-.4-1.1-.7-1.5-.9s-1-.3-1.7-.3c-.8 0-1.4.2-1.9.5-.5.4-.7.8-.7 1.4 0 .5.1.9.4 1.2s.8.6 1.7.9 2.1.6 3.9.9c3.2.5 5.4 1.5 6.9 2.9 1.4 1.4 2.1 3 2.1 4.9 0 2.4-1.1 4.3-3.2 5.8-2.1 1.4-5.1 2.1-9 2.1-2.6-.1-4.8-.4-6.5-1.2z"/></g></svg>